{
    "asset" : {
        "generator" : "Khronos glTF Blender I/O v1.2.75",
        "version" : "2.0"
    },
    "scene" : 0,
    "scenes" : [
        {
            "name" : "Scene",
            "nodes" : [
                2
            ]
        }
    ],
    "nodes" : [
        {
            "mesh" : 0,
            "name" : "Arrow",
            "translation" : [
                0.0025182394310832024,
                -0.002261354587972164,
                0
            ]
        },
        {
            "mesh" : 1,
            "name" : "Label",
            "translation" : [
                0.016681039705872536,
                -0.010031657293438911,
                0.0013067420804873109
            ]
        },
        {
            "children" : [
                0,
                1
            ],
            "mesh" : 2,
            "name" : "Cursor",
            "scale" : [
                37.51142883300781,
                37.51142883300781,
                37.51142883300781
            ],
            "translation" : [
                0.005737371277064085,
                0.57738196849823,
                0
            ]
        }
    ],
    "materials" : [
        {
            "doubleSided" : true,
            "name" : "Arrow",
            "pbrMetallicRoughness" : {}
        },
        {
            "doubleSided" : true,
            "name" : "Label",
            "pbrMetallicRoughness" : {}
        },
        {
            "doubleSided" : true,
            "name" : "Cursor",
            "pbrMetallicRoughness" : {}
        }
    ],
    "meshes" : [
        {
            "name" : "Arrow",
            "primitives" : [
                {
                    "attributes" : {
                        "POSITION" : 0,
                        "NORMAL" : 1,
                        "TEXCOORD_0" : 2
                    },
                    "indices" : 3,
                    "material" : 0
                }
            ]
        },
        {
            "name" : "Label",
            "primitives" : [
                {
                    "attributes" : {
                        "POSITION" : 4,
                        "NORMAL" : 5,
                        "TEXCOORD_0" : 6
                    },
                    "indices" : 7,
                    "material" : 1
                }
            ]
        },
        {
            "name" : "Cursor",
            "primitives" : [
                {
                    "attributes" : {
                        "POSITION" : 8,
                        "NORMAL" : 9,
                        "TEXCOORD_0" : 10
                    },
                    "indices" : 11,
                    "material" : 2
                }
            ]
        }
    ],
    "accessors" : [
        {
            "bufferView" : 0,
            "componentType" : 5126,
            "count" : 1100,
            "max" : [
                0.003136893268674612,
                0.0025285473093390465,
                0.0010000000474974513
            ],
            "min" : [
                -0.002529085148125887,
                -0.003136233426630497,
                -0.0010000000474974513
            ],
            "type" : "VEC3"
        },
        {
            "bufferView" : 1,
            "componentType" : 5126,
            "count" : 1100,
            "type" : "VEC3"
        },
        {
            "bufferView" : 2,
            "componentType" : 5126,
            "count" : 1100,
            "type" : "VEC2"
        },
        {
            "bufferView" : 3,
            "componentType" : 5123,
            "count" : 3870,
            "type" : "SCALAR"
        },
        {
            "bufferView" : 4,
            "componentType" : 5126,
            "count" : 1902,
            "max" : [
                0.005358939990401268,
                0.0018347897566854954,
                0.00039999998989515007
            ],
            "min" : [
                -0.0078026968985795975,
                -0.0012996490113437176,
                -0.00039999998989515007
            ],
            "type" : "VEC3"
        },
        {
            "bufferView" : 5,
            "componentType" : 5126,
            "count" : 1902,
            "type" : "VEC3"
        },
        {
            "bufferView" : 6,
            "componentType" : 5126,
            "count" : 1902,
            "type" : "VEC2"
        },
        {
            "bufferView" : 7,
            "componentType" : 5123,
            "count" : 4809,
            "type" : "SCALAR"
        },
        {
            "bufferView" : 8,
            "componentType" : 5126,
            "count" : 1322,
            "max" : [
                0.026376482099294662,
                -0.004387593828141689,
                0.0010000000474974513
            ],
            "min" : [
                0.004362697713077068,
                -0.015392160974442959,
                -0.0010000000474974513
            ],
            "type" : "VEC3"
        },
        {
            "bufferView" : 9,
            "componentType" : 5126,
            "count" : 1322,
            "type" : "VEC3"
        },
        {
            "bufferView" : 10,
            "componentType" : 5126,
            "count" : 1322,
            "type" : "VEC2"
        },
        {
            "bufferView" : 11,
            "componentType" : 5123,
            "count" : 5088,
            "type" : "SCALAR"
        }
    ],
    "bufferViews" : [
        {
            "buffer" : 0,
            "byteLength" : 13200,
            "byteOffset" : 0
        },
        {
            "buffer" : 0,
            "byteLength" : 13200,
            "byteOffset" : 13200
        },
        {
            "buffer" : 0,
            "byteLength" : 8800,
            "byteOffset" : 26400
        },
        {
            "buffer" : 0,
            "byteLength" : 7740,
            "byteOffset" : 35200
        },
        {
            "buffer" : 0,
            "byteLength" : 22824,
            "byteOffset" : 42940
        },
        {
            "buffer" : 0,
            "byteLength" : 22824,
            "byteOffset" : 65764
        },
        {
            "buffer" : 0,
            "byteLength" : 15216,
            "byteOffset" : 88588
        },
        {
            "buffer" : 0,
            "byteLength" : 9618,
            "byteOffset" : 103804
        },
        {
            "buffer" : 0,
            "byteLength" : 15864,
            "byteOffset" : 113424
        },
        {
            "buffer" : 0,
            "byteLength" : 15864,
            "byteOffset" : 129288
        },
        {
            "buffer" : 0,
            "byteLength" : 10576,
            "byteOffset" : 145152
        },
        {
            "buffer" : 0,
            "byteLength" : 10176,
            "byteOffset" : 155728
        }
    ],
    "buffers" : [
        {
            "byteLength" : 165904,
            "uri" : "data:application/octet-stream;base64,"
        }
    ]
}
